<svg width="110" height="130" viewBox="0 0 146 171" fill="none" xmlns="http://www.w3.org/2000/svg">
<path d="M1.78787 43.8053L73.1386 2.16329L144.489 43.8053V127.118L73.1386 168.76L1.78787 127.118V43.8053Z" stroke="white" stroke-width="3"/>
<path d="M112.65 57H34.35C33.1963 57 32.0899 57.4658 31.2741 58.2949C30.4583 59.124 30 60.2485 30 61.4211V108.579C30 109.751 30.4583 110.876 31.2741 111.705C32.0899 112.534 33.1963 113 34.35 113H112.65C113.804 113 114.91 112.534 115.726 111.705C116.542 110.876 117 109.751 117 108.579V61.4211C117 60.2485 116.542 59.124 115.726 58.2949C114.91 57.4658 113.804 57 112.65 57ZM114.1 108.579C114.1 108.97 113.947 109.345 113.675 109.621C113.403 109.897 113.035 110.053 112.65 110.053H34.35C33.9654 110.053 33.5966 109.897 33.3247 109.621C33.0528 109.345 32.9 108.97 32.9 108.579V61.4211C32.9 61.0302 33.0528 60.6554 33.3247 60.379C33.5966 60.1026 33.9654 59.9474 34.35 59.9474H112.65C113.035 59.9474 113.403 60.1026 113.675 60.379C113.947 60.6554 114.1 61.0302 114.1 61.4211V108.579Z" fill="white"/>
<path d="M35.8 107.105H111.2V62.8948H35.8V107.105ZM38.7 65.8421H108.3V104.158H38.7V65.8421Z" fill="white"/>
<path d="M44.4999 68.7893H50.2999V71.7367H44.4999V68.7893Z" fill="white"/>
<path d="M44.4999 98.2631H50.2999V101.21H44.4999V98.2631Z" fill="white"/>
<path d="M96.7001 68.7893H102.5V71.7367H96.7001V68.7893Z" fill="white"/>
<path d="M96.7001 98.2631H102.5V101.21H96.7001V98.2631Z" fill="white"/>
<path d="M51.7499 74.6843H43.0499C42.6653 74.6843 42.2965 74.8396 42.0245 75.116C41.7526 75.3923 41.5999 75.7672 41.5999 76.158V93.8422C41.5999 94.2331 41.7526 94.6079 42.0245 94.8843C42.2965 95.1606 42.6653 95.3159 43.0499 95.3159H51.7499C52.1344 95.3159 52.5032 95.1606 52.7752 94.8843C53.0471 94.6079 53.1999 94.2331 53.1999 93.8422V76.158C53.1999 75.7672 53.0471 75.3923 52.7752 75.116C52.5032 74.8396 52.1344 74.6843 51.7499 74.6843ZM50.2999 92.3685H44.4999V77.6317H50.2999V92.3685Z" fill="white"/>
<path d="M103.95 74.6843H95.2499C94.8654 74.6843 94.4965 74.8396 94.2246 75.116C93.9527 75.3923 93.7999 75.7672 93.7999 76.158V93.8422C93.7999 94.2331 93.9527 94.6079 94.2246 94.8843C94.4965 95.1606 94.8654 95.3159 95.2499 95.3159H103.95C104.334 95.3159 104.703 95.1606 104.975 94.8843C105.247 94.6079 105.4 94.2331 105.4 93.8422V76.158C105.4 75.7672 105.247 75.3923 104.975 75.116C104.703 74.8396 104.334 74.6843 103.95 74.6843ZM102.5 92.3685H96.6999V77.6317H102.5V92.3685Z" fill="white"/>
<path d="M63.3501 76.158C63.3501 75.7672 63.1973 75.3923 62.9254 75.116C62.6535 74.8396 62.2847 74.6843 61.9001 74.6843H59.0001C58.6156 74.6844 58.2468 74.8397 57.975 75.1161L55.075 78.0635L57.1253 80.1473L59.6004 77.6317H60.4501V92.3685H57.5501V95.3159H66.2501V92.3685H63.3501V76.158Z" fill="white"/>
<path d="M77.85 74.6843H70.6C70.2155 74.6843 69.8466 74.8396 69.5747 75.116C69.3028 75.3923 69.15 75.7672 69.15 76.158V95.3159H72.05V86.4738H77.85C78.2346 86.4738 78.6034 86.3185 78.8753 86.0422C79.1473 85.7658 79.3 85.391 79.3 85.0001V76.158C79.3 75.7672 79.1473 75.3923 78.8753 75.116C78.6034 74.8396 78.2346 74.6843 77.85 74.6843ZM76.4 83.5264H72.05V77.6317H76.4V83.5264Z" fill="white"/>
<path d="M82.2001 76.158V95.3159H85.1001V83.5264H90.9001V80.5791H85.1001V77.6317H92.3501V74.6843H83.6501C83.2655 74.6843 82.8967 74.8396 82.6248 75.116C82.3528 75.3923 82.2001 75.7672 82.2001 76.158Z" fill="white"/>
<path d="M56.1 68.7893H59V71.7367H56.1V68.7893Z" fill="white"/>
<path d="M76.4 98.2631H79.3V101.21H76.4V98.2631Z" fill="white"/>
</svg>
