<svg xmlns="http://www.w3.org/2000/svg" xmlns:xlink="http://www.w3.org/1999/xlink" width="1920" zoomAndPan="magnify" viewBox="0 0 1440 809.999993" height="1080" preserveAspectRatio="xMidYMid meet" version="1.0"><defs><g/></defs><path stroke-linecap="butt" transform="matrix(6.701468, 0, 0, 6.701468, 23.047252, 50.114914)" fill="none" stroke-linejoin="miter" d="M -0.0000563075 2.000251 L 208.000077 2.000251 " stroke="#000000" stroke-width="4" stroke-opacity="1" stroke-miterlimit="4"/><path stroke-linecap="butt" transform="matrix(6.701468, -0.000626055, 0.000626055, 6.701468, 23.045998, 733.079215)" fill="none" stroke-linejoin="miter" d="M -0.0000559661 1.999749 L 208.000077 1.999945 " stroke="#000000" stroke-width="4" stroke-opacity="1" stroke-miterlimit="4"/><path stroke-linecap="butt" transform="matrix(0.00000000000000041, 6.695433, -6.701468, 0.00000000000000041, 49.830935, 55.741695)" fill="none" stroke-linejoin="miter" d="M 0.0000735881 1.999748 L 104.09972 1.999748 " stroke="#000000" stroke-width="4" stroke-opacity="1" stroke-miterlimit="4"/><path stroke-linecap="butt" transform="matrix(0.00000000000000041, 6.695433, -6.701468, 0.00000000000000041, 1416.931687, 55.741695)" fill="none" stroke-linejoin="miter" d="M 0.0000735881 2.00021 L 104.09972 2.00021 " stroke="#000000" stroke-width="4" stroke-opacity="1" stroke-miterlimit="4"/><path stroke-linecap="butt" transform="matrix(6.701468, 0, 0, 6.701468, 23.048503, 173.638048)" fill="none" stroke-linejoin="miter" d="M -0.000242929 1.999713 L 207.99989 1.999713 " stroke="#000000" stroke-width="4" stroke-opacity="1" stroke-miterlimit="4"/><path stroke-linecap="butt" transform="matrix(6.701468, 0, 0, 6.701468, 23.045996, 608.978077)" fill="none" stroke-linejoin="miter" d="M 0.000131138 2.000268 L 208.000264 2.000268 " stroke="#000000" stroke-width="4" stroke-opacity="1" stroke-miterlimit="4"/><g fill="#000000" fill-opacity="1"><g transform="translate(147.20527, 495.001974)"><g><path d="M 1.421875 0 L 1.421875 -17.15625 L 24.875 -22.578125 L 90.0625 -198.6875 L 118.640625 -200.125 L 182.109375 -22.578125 L 205.84375 -17.15625 L 205.84375 0 L 122.9375 0 L 122.9375 -17.15625 L 149.515625 -22.578125 L 138.65625 -54.3125 L 64.328125 -54.3125 L 53.171875 -22.578125 L 80.046875 -17.15625 L 80.046875 0 Z M 102.0625 -163.25 L 72.046875 -77.1875 L 130.9375 -77.1875 Z M 102.0625 -163.25 "/></g></g></g><g fill="#000000" fill-opacity="1"><g transform="translate(354.453095, 495.001974)"><g><path d="M 11.4375 0 L 11.4375 -17.15625 L 35.734375 -22.875 L 35.734375 -177.25 L 11.4375 -182.96875 L 11.4375 -198.6875 L 64.328125 -200.125 L 97.203125 -200.125 C 115.878906 -200.125 130.789062 -195.929688 141.9375 -187.546875 C 153.09375 -179.160156 158.671875 -166.675781 158.671875 -150.09375 C 158.671875 -125.507812 146.28125 -110.070312 121.5 -103.78125 C 136.363281 -100.34375 147.460938 -94.625 154.796875 -86.625 C 162.140625 -78.625 165.8125 -68.804688 165.8125 -57.171875 C 165.8125 -19.054688 141.515625 0 92.921875 0 Z M 64.328125 -92.921875 L 64.328125 -22.875 L 94.34375 -22.875 C 121.976562 -22.875 135.796875 -33.832031 135.796875 -55.75 C 135.796875 -69.46875 131.648438 -79.09375 123.359375 -84.625 C 115.066406 -90.15625 102.535156 -92.921875 85.765625 -92.921875 Z M 64.328125 -177.25 L 64.328125 -114.359375 L 85.765625 -114.359375 C 99.109375 -114.359375 109.59375 -117.070312 117.21875 -122.5 C 124.84375 -127.9375 128.65625 -135.800781 128.65625 -146.09375 C 128.65625 -156.570312 125.601562 -164.382812 119.5 -169.53125 C 113.40625 -174.675781 105.492188 -177.25 95.765625 -177.25 Z M 64.328125 -177.25 "/></g></g></g><g fill="#000000" fill-opacity="1"><g transform="translate(534.544313, 495.001974)"><g><path d="M 148.65625 -140.375 L 140.9375 -172.96875 C 130.644531 -176.78125 118.445312 -178.6875 104.34375 -178.6875 C 84.90625 -178.6875 70.039062 -171.632812 59.75 -157.53125 C 49.457031 -143.425781 44.3125 -123.695312 44.3125 -98.34375 C 44.3125 -72.800781 49.882812 -53.835938 61.03125 -41.453125 C 72.1875 -29.066406 87.101562 -22.875 105.78125 -22.875 C 109.96875 -22.875 114.492188 -23.347656 119.359375 -24.296875 C 124.222656 -25.253906 128.941406 -26.632812 133.515625 -28.4375 C 138.085938 -30.25 142.28125 -32.15625 146.09375 -34.15625 C 149.90625 -36.164062 153.050781 -38.125 155.53125 -40.03125 L 162.953125 -45.75 L 174.390625 -27.15625 C 170.203125 -22.96875 165.390625 -19.0625 159.953125 -15.4375 C 154.523438 -11.8125 148.710938 -8.617188 142.515625 -5.859375 C 136.316406 -3.097656 129.882812 -0.957031 123.21875 0.5625 C 116.550781 2.09375 109.785156 2.859375 102.921875 2.859375 C 73.753906 2.859375 51.210938 -5.570312 35.296875 -22.4375 C 19.390625 -39.3125 11.4375 -63.945312 11.4375 -96.34375 C 11.4375 -112.539062 13.675781 -127.210938 18.15625 -140.359375 C 22.632812 -153.515625 29.066406 -164.710938 37.453125 -173.953125 C 45.835938 -183.203125 55.890625 -190.351562 67.609375 -195.40625 C 79.335938 -200.457031 92.535156 -202.984375 107.203125 -202.984375 C 111.585938 -202.984375 116.398438 -202.648438 121.640625 -201.984375 C 126.890625 -201.316406 132.035156 -200.410156 137.078125 -199.265625 C 142.128906 -198.117188 146.894531 -196.925781 151.375 -195.6875 C 155.851562 -194.445312 159.523438 -193.257812 162.390625 -192.125 L 171.53125 -188.6875 L 170.109375 -140.375 Z M 148.65625 -140.375 "/></g></g></g><g fill="#000000" fill-opacity="1"><g transform="translate(718.923446, 495.001974)"><g><path d="M 17.15625 -65.75 L 17.15625 -90.0625 L 91.484375 -90.0625 L 91.484375 -65.75 Z M 17.15625 -65.75 "/></g></g></g><g fill="#000000" fill-opacity="1"><g transform="translate(826.120553, 495.001974)"><g><path d="M 139.234375 -24.296875 L 139.234375 0 L 22.296875 0 L 22.296875 -24.296875 L 66.328125 -24.296875 L 66.328125 -167.25 L 17.71875 -135.796875 L 5.71875 -156.375 L 72.328125 -200.125 L 96.34375 -200.125 L 96.34375 -24.296875 Z M 139.234375 -24.296875 "/></g></g></g><g fill="#000000" fill-opacity="1"><g transform="translate(972.480387, 495.001974)"><g><path d="M 12.859375 0 L 12.859375 -24.296875 C 32.109375 -41.453125 48.070312 -56.03125 60.75 -68.03125 C 73.425781 -80.039062 83.523438 -90.523438 91.046875 -99.484375 C 98.578125 -108.441406 103.867188 -116.492188 106.921875 -123.640625 C 109.972656 -130.796875 111.5 -138.179688 111.5 -145.796875 C 111.5 -156.097656 108.066406 -164.15625 101.203125 -169.96875 C 94.335938 -175.78125 84.90625 -178.6875 72.90625 -178.6875 C 63.5625 -178.6875 54.890625 -177.253906 46.890625 -174.390625 L 42.890625 -172.96875 L 40.03125 -145.796875 L 17.15625 -145.796875 L 15.71875 -191.546875 C 36.300781 -199.171875 56.882812 -202.984375 77.46875 -202.984375 C 87.382812 -202.984375 96.34375 -201.984375 104.34375 -199.984375 C 112.351562 -197.984375 119.3125 -194.835938 125.21875 -190.546875 C 131.125 -186.253906 135.550781 -180.722656 138.5 -173.953125 C 141.457031 -167.191406 142.9375 -159.144531 142.9375 -149.8125 C 142.9375 -140.28125 141.363281 -131.128906 138.21875 -122.359375 C 135.082031 -113.585938 129.9375 -104.390625 122.78125 -94.765625 C 115.632812 -85.140625 106.34375 -74.65625 94.90625 -63.3125 C 83.476562 -51.976562 69.472656 -38.972656 52.890625 -24.296875 L 148.65625 -24.296875 L 148.65625 0 Z M 12.859375 0 "/></g></g></g><g fill="#000000" fill-opacity="1"><g transform="translate(1135.420056, 495.001974)"><g><path d="M 40.03125 -115.78125 L 62.890625 -115.78125 C 76.046875 -115.78125 86.484375 -118.6875 94.203125 -124.5 C 101.921875 -130.3125 105.78125 -138.175781 105.78125 -148.09375 C 105.78125 -158 102.441406 -165.570312 95.765625 -170.8125 C 89.097656 -176.0625 80.046875 -178.6875 68.609375 -178.6875 C 58.316406 -178.6875 49.171875 -177.253906 41.171875 -174.390625 L 37.171875 -172.96875 L 34.3125 -147.234375 L 11.4375 -147.234375 L 10 -191.546875 C 30.582031 -199.171875 50.882812 -202.984375 70.90625 -202.984375 C 90.726562 -202.984375 106.5 -198.929688 118.21875 -190.828125 C 129.9375 -182.734375 135.796875 -170.109375 135.796875 -152.953125 C 135.796875 -127.410156 123.40625 -111.492188 98.625 -105.203125 C 111.394531 -102.535156 121.5 -96.960938 128.9375 -88.484375 C 136.375 -80.003906 140.09375 -70.332031 140.09375 -59.46875 C 140.09375 -48.414062 137.898438 -38.929688 133.515625 -31.015625 C 129.128906 -23.109375 123.363281 -16.675781 116.21875 -11.71875 C 109.070312 -6.757812 100.96875 -3.085938 91.90625 -0.703125 C 82.851562 1.671875 73.660156 2.859375 64.328125 2.859375 C 58.796875 2.859375 53.363281 2.523438 48.03125 1.859375 C 42.695312 1.191406 37.738281 0.335938 33.15625 -0.703125 C 28.582031 -1.753906 24.484375 -2.945312 20.859375 -4.28125 C 17.242188 -5.625 14.289062 -6.863281 12 -8 L 5.71875 -11.4375 L 14.296875 -34.3125 C 30.492188 -25.726562 47.644531 -21.4375 65.75 -21.4375 C 78.90625 -21.4375 89.34375 -24.582031 97.0625 -30.875 C 104.78125 -37.164062 108.640625 -46.03125 108.640625 -57.46875 C 108.640625 -68.90625 104.394531 -77.671875 95.90625 -83.765625 C 87.425781 -89.867188 75.945312 -92.921875 61.46875 -92.921875 L 40.03125 -92.921875 Z M 40.03125 -115.78125 "/></g></g></g></svg>