<svg height="512" viewBox="0 0 64 64" width="512" xmlns="http://www.w3.org/2000/svg"><path d="m59 13h-54a3 3 0 0 0 -3 3v32a3 3 0 0 0 3 3h54a3 3 0 0 0 3-3v-32a3 3 0 0 0 -3-3zm1 35a1 1 0 0 1 -1 1h-54a1 1 0 0 1 -1-1v-32a1 1 0 0 1 1-1h54a1 1 0 0 1 1 1z"/><path d="m6 47h52v-30h-52zm2-28h48v26h-48z"/><path d="m12 21h4v2h-4z"/><path d="m12 41h4v2h-4z"/><path d="m48 21h4v2h-4z"/><path d="m48 41h4v2h-4z"/><path d="m17 25h-6a1 1 0 0 0 -1 1v12a1 1 0 0 0 1 1h6a1 1 0 0 0 1-1v-12a1 1 0 0 0 -1-1zm-1 12h-4v-10h4z"/><path d="m53 25h-6a1 1 0 0 0 -1 1v12a1 1 0 0 0 1 1h6a1 1 0 0 0 1-1v-12a1 1 0 0 0 -1-1zm-1 12h-4v-10h4z"/><path d="m25 26a1 1 0 0 0 -1-1h-2a1 1 0 0 0 -.707.293l-2 2 1.414 1.414 1.707-1.707h.586v10h-2v2h6v-2h-2z"/><path d="m35 25h-5a1 1 0 0 0 -1 1v13h2v-6h4a1 1 0 0 0 1-1v-6a1 1 0 0 0 -1-1zm-1 6h-3v-4h3z"/><path d="m38 26v13h2v-8h4v-2h-4v-2h5v-2h-6a1 1 0 0 0 -1 1z"/><path d="m20 21h2v2h-2z"/><path d="m34 41h2v2h-2z"/></svg>