<svg width="121" height="140" viewBox="0 0 121 140" fill="none" xmlns="http://www.w3.org/2000/svg">
<path d="M1.81123 35.8629L60.5 1.73517L119.189 35.8629V104.137L60.5 138.265L1.81123 104.137V35.8629Z" stroke="#0F474C" stroke-width="3"/>
<path d="M95.9514 48.4081H25.6572C24.6215 48.4081 23.6281 48.7685 22.8958 49.4101C22.1634 50.0517 21.752 50.9219 21.752 51.8292V88.3213C21.752 89.2286 22.1634 90.0988 22.8958 90.7404C23.6281 91.382 24.6215 91.7424 25.6572 91.7424H95.9514C96.9872 91.7424 97.9805 91.382 98.7129 90.7404C99.4452 90.0988 99.8567 89.2286 99.8567 88.3213V51.8292C99.8567 50.9219 99.4452 50.0517 98.7129 49.4101C97.9805 48.7685 96.9872 48.4081 95.9514 48.4081ZM97.2532 88.3213C97.2532 88.6237 97.116 88.9138 96.8719 89.1277C96.6278 89.3415 96.2967 89.4617 95.9514 89.4617H25.6572C25.3119 89.4617 24.9808 89.3415 24.7367 89.1277C24.4926 88.9138 24.3554 88.6237 24.3554 88.3213V51.8292C24.3554 51.5268 24.4926 51.2367 24.7367 51.0228C24.9808 50.809 25.3119 50.6888 25.6572 50.6888H95.9514C96.2967 50.6888 96.6278 50.809 96.8719 51.0228C97.116 51.2367 97.2532 51.5268 97.2532 51.8292V88.3213Z" fill="#0F474C"/>
<path d="M26.959 87.1809H94.6497V52.9696H26.959V87.1809ZM29.5625 55.2504H92.0462V84.9002H29.5625V55.2504Z" fill="#0F474C"/>
<path d="M34.7695 57.5311H39.9765V59.8119H34.7695V57.5311Z" fill="#0F474C"/>
<path d="M34.7695 80.3387H39.9765V82.6195H34.7695V80.3387Z" fill="#0F474C"/>
<path d="M81.6323 57.5311H86.8393V59.8119H81.6323V57.5311Z" fill="#0F474C"/>
<path d="M81.6323 80.3387H86.8393V82.6195H81.6323V80.3387Z" fill="#0F474C"/>
<path d="M41.2782 62.0928H33.4678C33.1225 62.0928 32.7914 62.2129 32.5473 62.4268C32.3032 62.6406 32.166 62.9307 32.166 63.2332V76.9177C32.166 77.2201 32.3032 77.5102 32.5473 77.7241C32.7914 77.9379 33.1225 78.0581 33.4678 78.0581H41.2782C41.6235 78.0581 41.9546 77.9379 42.1987 77.7241C42.4428 77.5102 42.58 77.2201 42.58 76.9177V63.2332C42.58 62.9307 42.4428 62.6406 42.1987 62.4268C41.9546 62.2129 41.6235 62.0928 41.2782 62.0928ZM39.9765 75.7773H34.7695V64.3735H39.9765V75.7773Z" fill="#0F474C"/>
<path d="M88.1408 62.0928H80.3303C79.9851 62.0928 79.654 62.2129 79.4098 62.4268C79.1657 62.6406 79.0286 62.9307 79.0286 63.2332V76.9177C79.0286 77.2201 79.1657 77.5102 79.4098 77.7241C79.654 77.9379 79.9851 78.0581 80.3303 78.0581H88.1408C88.486 78.0581 88.8171 77.9379 89.0613 77.7241C89.3054 77.5102 89.4425 77.2201 89.4425 76.9177V63.2332C89.4425 62.9307 89.3054 62.6406 89.0613 62.4268C88.8171 62.2129 88.486 62.0928 88.1408 62.0928ZM86.839 75.7773H81.6321V64.3735H86.839V75.7773Z" fill="#0F474C"/>
<path d="M51.692 63.2332C51.692 62.9307 51.5549 62.6406 51.3107 62.4268C51.0666 62.2129 50.7355 62.0928 50.3903 62.0928H47.7868C47.4415 62.0928 47.1105 62.213 46.8664 62.4269L44.2629 64.7077L46.1036 66.3202L48.3257 64.3735H49.0885V75.7773H46.485V78.0581H54.2955V75.7773H51.692V63.2332Z" fill="#0F474C"/>
<path d="M64.7099 62.0928H58.2012C57.8559 62.0928 57.5248 62.2129 57.2807 62.4268C57.0366 62.6406 56.8994 62.9307 56.8994 63.2332V78.0581H59.5029V71.2158H64.7099C65.0551 71.2158 65.3862 71.0956 65.6304 70.8818C65.8745 70.6679 66.0116 70.3779 66.0116 70.0754V63.2332C66.0116 62.9307 65.8745 62.6406 65.6304 62.4268C65.3862 62.2129 65.0551 62.0928 64.7099 62.0928ZM63.4081 68.935H59.5029V64.3735H63.4081V68.935Z" fill="#0F474C"/>
<path d="M68.615 63.2332V78.0581H71.2185V68.935H76.4255V66.6543H71.2185V64.3735H77.7272V62.0928H69.9167C69.5715 62.0928 69.2404 62.2129 68.9963 62.4268C68.7521 62.6406 68.615 62.9307 68.615 63.2332Z" fill="#0F474C"/>
<path d="M45.1833 57.5311H47.7868V59.8119H45.1833V57.5311Z" fill="#0F474C"/>
<path d="M63.4077 80.3387H66.0112V82.6195H63.4077V80.3387Z" fill="#0F474C"/>
</svg>
