<svg xmlns="http://www.w3.org/2000/svg" width="24" height="24" fill="none" viewBox="0 0 24 24" id="round-arrow-up"><path fill="#111" fill-rule="evenodd" d="M11.4697 7.46967C11.7626 7.17678 12.2374 7.17678 12.5303 7.46967L15.5303 10.4697C15.8232 10.7626 15.8232 11.2374 15.5303 11.5303C15.2374 11.8232 14.7626 11.8232 14.4697 11.5303L12.75 9.81066V16C12.75 16.4142 12.4142 16.75 12 16.75C11.5858 16.75 11.25 16.4142 11.25 16V9.81066L9.53033 11.5303C9.23744 11.8232 8.76256 11.8232 8.46967 11.5303C8.17678 11.2374 8.17678 10.7626 8.46967 10.4697L11.4697 7.46967Z" clip-rule="evenodd"></path><path fill="#111" fill-rule="evenodd" d="M12 2.75C10.3139 2.75 8.73533 3.20043 7.37554 3.98703C7.017 4.19443 6.5582 4.07191 6.3508 3.71337C6.14339 3.35482 6.26591 2.89602 6.62446 2.68862C8.2064 1.77351 10.0432 1.25 12 1.25C17.9371 1.25 22.75 6.06294 22.75 12C22.75 17.9371 17.9371 22.75 12 22.75C6.06294 22.75 1.25 17.9371 1.25 12C1.25 10.0432 1.77351 8.2064 2.68862 6.62446C2.89602 6.26591 3.35482 6.14339 3.71337 6.3508C4.07191 6.5582 4.19443 7.017 3.98703 7.37554C3.20043 8.73533 2.75 10.3139 2.75 12C2.75 17.1086 6.89137 21.25 12 21.25C17.1086 21.25 21.25 17.1086 21.25 12C21.25 6.89137 17.1086 2.75 12 2.75Z" clip-rule="evenodd"></path></svg>