<svg fill="none" height="512" viewBox="0 0 24 24" width="512" xmlns="http://www.w3.org/2000/svg"><path clip-rule="evenodd" d="m20 11c0-4.97056-4.0294-9-9-9-4.97056 0-9 4.02944-9 9 0 4.9706 4.02944 9 9 9 2.1252 0 4.0784-.7366 5.6182-1.9685l3.7689 3.7588c.3923.305.9595.2773 1.32-.0832.3905-.3905.3905-1.0237 0-1.4142l-3.6748-3.6757c1.2314-1.5396 1.9677-3.4924 1.9677-5.6172zm-16 0c0-3.86599 3.13401-7 7-7 3.866 0 7 3.13401 7 7 0 3.866-3.134 7-7 7-3.86599 0-7-3.134-7-7z" fill="rgb(0,0,0)" fill-rule="evenodd"/></svg>