<svg width="146" height="160" viewBox="0 0 146 171" fill="none" xmlns="http://www.w3.org/2000/svg">
<path d="M1.77005 43.3788L73.1208 1.73678L144.472 43.3788V126.691L73.1208 168.333L1.77005 126.691V43.3788Z" stroke="white" stroke-width="3"/>
<path d="M111.982 112.255L95.9003 96.1736L98.0444 94.0294L95.9003 91.8852L89.4705 98.3149L78.7467 87.594L91.6289 74.7061C93.3437 75.3175 95.1381 75.6275 96.9809 75.6275C101.227 75.6275 105.219 73.9724 108.225 70.9723C112.86 66.3341 114.174 59.4437 111.575 53.4149L110.691 51.3618L103.78 58.2721L98.2179 58.3489L98.2918 53.0424L105.336 45.9985L103.288 45.1112C101.281 44.241 99.145 43.8002 96.9496 43.8002C92.701 43.8002 88.7113 45.4553 85.7111 48.4555C81.3147 52.849 79.9013 59.2674 81.9829 65.0629L69.1036 77.9423L50.878 59.7195L53.0222 57.5754L41.2348 45.7852L34.7966 52.2149L46.5896 64.0079L48.731 61.8637L66.9566 80.0865L54.0772 92.9658C52.3568 92.3487 50.5538 92.0388 48.7082 92.0388C44.4625 92.0388 40.4699 93.6938 37.4669 96.694C32.823 101.335 31.5092 108.237 34.1226 114.271L35.0099 116.319L42.0538 109.275L47.3574 109.204L47.2807 114.766L40.3703 121.676L42.4235 122.561C44.4255 123.422 46.5527 123.863 48.7395 123.863C52.9881 123.863 56.9778 122.211 59.978 119.211C64.3688 114.82 65.7821 108.407 63.7147 102.623L76.6026 89.7353L87.3263 100.453L80.8909 106.889L83.0351 109.033L85.1793 106.889L101.258 122.967C102.688 124.401 104.596 125.188 106.618 125.188C108.64 125.188 110.546 124.401 111.979 122.967C114.933 120.013 114.933 115.204 111.979 112.249L111.982 112.255ZM39.0878 52.2177L41.232 50.0764L48.7338 57.5782L46.5896 59.7224L39.0878 52.2177ZM60.5553 102.859C62.6568 107.739 61.5904 113.321 57.8395 117.075C55.4109 119.504 52.1833 120.84 48.7452 120.84C47.7584 120.84 46.7858 120.729 45.8417 120.51L50.3036 116.049L50.4372 106.138L40.7855 106.269L36.1815 110.873C35.1691 106.579 36.4118 102.049 39.6168 98.8467C42.0453 96.4181 45.2758 95.0787 48.7139 95.0787C50.4941 95.0787 52.2203 95.4342 53.8497 96.1394L54.7967 96.5489L85.5632 65.7824L85.1537 64.8354C83.038 59.947 84.1015 54.3648 87.861 50.6053C90.2895 48.1768 93.52 46.8374 96.9553 46.8374C97.9506 46.8374 98.9317 46.9511 99.8843 47.1701L95.2832 51.7713L95.1495 61.423L105.06 61.2893L109.525 56.8246C110.526 61.1101 109.28 65.6317 106.087 68.8281C103.655 71.2566 100.425 72.596 96.9866 72.596C95.2121 72.596 93.4888 72.2406 91.865 71.541L90.9208 71.1344L60.1486 101.912L60.5553 102.859ZM109.84 120.829C108.981 121.688 107.838 122.163 106.624 122.163C105.41 122.163 104.267 121.688 103.408 120.829L87.3292 104.75L93.7618 98.3178L109.843 114.399C111.618 116.174 111.618 119.057 109.846 120.829H109.84Z" fill="white"/>
</svg>
