<svg width="122" height="140" viewBox="0 0 122 140" fill="none" xmlns="http://www.w3.org/2000/svg">
<path d="M1.87822 35.866L61 1.73205L120.122 35.866V104.134L61 138.268L1.87822 104.134V35.866Z" stroke="#0F474C" stroke-width="3"/>
<path d="M93.1385 92.375L79.7078 79.1211L81.4986 77.3539L79.7078 75.5867L74.3379 80.8859L65.3818 72.05L76.1406 61.4281C77.5727 61.932 79.0713 62.1875 80.6103 62.1875C84.1562 62.1875 87.4907 60.8234 90.0011 58.3508C93.8723 54.5281 94.9696 48.8492 92.7988 43.8805L92.0602 42.1883L86.289 47.8836L81.6435 47.9469L81.7052 43.5734L87.5881 37.768L85.8781 37.0367C84.2013 36.3195 82.4177 35.9562 80.5842 35.9562C77.036 35.9562 73.7038 37.3203 71.1982 39.793C67.5265 43.414 66.3461 48.7039 68.0846 53.4805L57.3282 64.0953L42.1068 49.0765L43.8976 47.3094L34.0532 37.5922L28.6762 42.8914L38.5253 52.6109L40.3137 50.8437L55.5351 65.8625L44.7787 76.4773C43.3418 75.9687 41.8361 75.7133 40.2947 75.7133C36.7488 75.7133 33.4143 77.0773 30.9063 79.55C27.028 83.375 25.9307 89.0633 28.1133 94.0367L28.8543 95.7242L34.7372 89.9187L39.1666 89.8601L39.1025 94.4445L33.3312 100.14L35.046 100.869C36.718 101.579 38.4945 101.942 40.3208 101.942C43.8691 101.942 47.2012 100.58 49.7068 98.1078C53.3738 94.489 54.5542 89.2039 52.8276 84.4367L63.5911 73.8148L72.5472 82.6484L67.1726 87.9523L68.9633 89.7195L70.7541 87.9523L84.1823 101.204C85.377 102.385 86.9706 103.034 88.6592 103.034C90.3478 103.034 91.9391 102.385 93.1361 101.204C95.6037 98.7687 95.6037 94.8054 93.1361 92.3703L93.1385 92.375ZM32.2601 42.8937L34.0508 41.1289L40.3161 47.3117L38.5253 49.0789L32.2601 42.8937ZM50.189 84.6312C51.9441 88.6531 51.0535 93.2539 47.9208 96.3476C45.8926 98.3492 43.197 99.4508 40.3256 99.4508C39.5015 99.4508 38.6892 99.3594 37.9007 99.1789L41.6271 95.5015L41.7387 87.3336L33.678 87.4414L29.8328 91.2359C28.9873 87.6969 30.0252 83.9633 32.7018 81.3242C34.7301 79.3226 37.4281 78.2187 40.2995 78.2187C41.7862 78.2187 43.2278 78.5117 44.5887 79.093L45.3796 79.4305L71.0747 54.0734L70.7327 53.293C68.9657 49.264 69.8539 44.6633 72.9937 41.5648C75.0219 39.5633 77.7199 38.4594 80.5889 38.4594C81.4202 38.4594 82.2396 38.5531 83.0352 38.7336L79.1925 42.5258L79.0808 50.4805L87.3577 50.3703L91.0864 46.6906C91.9224 50.2226 90.8822 53.9492 88.2151 56.5836C86.1845 58.5851 83.4865 59.689 80.6151 59.689C79.1331 59.689 77.6938 59.3961 76.3377 58.8195L75.5492 58.4844L49.8493 83.8508L50.189 84.6312ZM91.3501 99.4414C90.6328 100.149 89.6781 100.541 88.664 100.541C87.6498 100.541 86.6951 100.149 85.9778 99.4414L72.5496 86.1898L77.9218 80.8883L91.3525 94.1422C92.8345 95.6047 92.8345 97.9812 91.3548 99.4414H91.3501Z" fill="#0F474C"/>
</svg>
