<svg width="146" height="160" viewBox="0 0 146 171" fill="none" xmlns="http://www.w3.org/2000/svg">
<path d="M1.77005 43.3788L73.1208 1.73678L144.472 43.3788V126.691L73.1208 168.333L1.77005 126.691V43.3788Z" stroke="white" stroke-width="3"/>
<g clip-path="url(#clip0_6_4)">
<path d="M108.445 79.2393H108.363V62.014C108.363 59.8781 106.625 58.1404 104.489 58.1404H103.796L102.218 49.8412C102.091 49.1707 101.71 48.5901 101.145 48.2061C100.581 47.8222 99.9012 47.681 99.2309 47.8084L93.3521 48.9261L91.1631 42.7103C90.9365 42.0667 90.4726 41.5497 89.857 41.2548C89.2417 40.96 88.5483 40.9223 87.9044 41.1492L39.6385 58.1483C37.6118 58.2703 36 59.9571 36 62.014V112.124C36 114.26 37.7377 115.998 39.8736 115.998H104.489C106.625 115.998 108.363 114.26 108.363 112.124V94.8986H108.445C109.854 94.8986 111 93.7525 111 92.3436V81.7941C111 80.3855 109.854 79.2393 108.445 79.2393ZM88.7256 43.4813C88.7336 43.4785 88.7575 43.4698 88.7886 43.4848C88.8193 43.4994 88.8278 43.5239 88.8306 43.5318L90.8952 49.3935L88.4332 49.8615C87.7625 49.9891 87.322 50.6363 87.4496 51.307C87.5771 51.9778 88.2239 52.4184 88.8951 52.2907L99.6926 50.2377C99.7008 50.2362 99.726 50.2313 99.7544 50.2506C99.7828 50.2699 99.7875 50.2951 99.789 50.3033L101.279 58.1407H58.1254L83.6218 53.2932C84.2925 53.1658 84.733 52.5186 84.6054 51.8477C84.4778 51.177 83.831 50.7362 83.1599 50.8641L49.7029 57.2252L88.7256 43.4813ZM105.89 112.124C105.89 112.896 105.262 113.525 104.489 113.525H39.8736C39.1011 113.525 38.4725 112.896 38.4725 112.124V110.723H41.1923C41.875 110.723 42.4286 110.169 42.4286 109.486C42.4286 108.804 41.875 108.25 41.1923 108.25H38.4725V65.8877H41.1923C41.875 65.8877 42.4286 65.3341 42.4286 64.6513C42.4286 63.9686 41.875 63.415 41.1923 63.415H38.4725V62.0139C38.4725 61.2413 39.1011 60.6128 39.8736 60.6128H104.489C105.262 60.6128 105.89 61.2413 105.89 62.0139V79.2391H97.8957C93.5785 79.2391 90.0659 82.7515 90.0659 87.0689C90.0659 91.3861 93.5783 94.8986 97.8957 94.8986H105.89V112.124ZM108.527 92.3436C108.527 92.3889 108.491 92.4261 108.445 92.4261H97.8955C94.9417 92.4261 92.5384 90.0229 92.5384 87.069C92.5384 84.115 94.9417 81.7119 97.8955 81.7119H108.445C108.491 81.7119 108.527 81.749 108.527 81.7944V92.3436Z" fill="white"/>
<path d="M49.1043 108.25H46.467C45.7843 108.25 45.2307 108.804 45.2307 109.486C45.2307 110.169 45.7843 110.723 46.467 110.723H49.1043C49.7871 110.723 50.3407 110.169 50.3407 109.486C50.3407 108.804 49.7871 108.25 49.1043 108.25Z" fill="white"/>
<path d="M49.1043 63.415H46.467C45.7843 63.415 45.2307 63.9686 45.2307 64.6514C45.2307 65.3341 45.7843 65.8877 46.467 65.8877H49.1043C49.7871 65.8877 50.3407 65.3341 50.3407 64.6514C50.3407 63.9686 49.7871 63.415 49.1043 63.415Z" fill="white"/>
<path d="M57.0165 108.25H54.3792C53.6964 108.25 53.1428 108.804 53.1428 109.486C53.1428 110.169 53.6964 110.723 54.3792 110.723H57.0165C57.6992 110.723 58.2528 110.169 58.2528 109.486C58.2528 108.804 57.6991 108.25 57.0165 108.25Z" fill="white"/>
<path d="M57.0165 63.415H54.3792C53.6964 63.415 53.1428 63.9686 53.1428 64.6514C53.1428 65.3341 53.6964 65.8877 54.3792 65.8877H57.0165C57.6992 65.8877 58.2528 65.3341 58.2528 64.6514C58.2528 63.9686 57.6991 63.415 57.0165 63.415Z" fill="white"/>
<path d="M64.9286 108.25H62.2913C61.6085 108.25 61.0549 108.804 61.0549 109.486C61.0549 110.169 61.6085 110.723 62.2913 110.723H64.9286C65.6113 110.723 66.1649 110.169 66.1649 109.486C66.1649 108.804 65.6113 108.25 64.9286 108.25Z" fill="white"/>
<path d="M64.9286 63.415H62.2913C61.6085 63.415 61.0549 63.9686 61.0549 64.6514C61.0549 65.3341 61.6085 65.8877 62.2913 65.8877H64.9286C65.6113 65.8877 66.1649 65.3341 66.1649 64.6514C66.1649 63.9686 65.6113 63.415 64.9286 63.415Z" fill="white"/>
<path d="M72.8407 108.25H70.2034C69.5206 108.25 68.967 108.804 68.967 109.486C68.967 110.169 69.5206 110.723 70.2034 110.723H72.8407C73.5234 110.723 74.077 110.169 74.077 109.486C74.077 108.804 73.5234 108.25 72.8407 108.25Z" fill="white"/>
<path d="M72.8407 63.415H70.2034C69.5206 63.415 68.967 63.9686 68.967 64.6514C68.967 65.3341 69.5206 65.8877 70.2034 65.8877H72.8407C73.5234 65.8877 74.077 65.3341 74.077 64.6514C74.077 63.9686 73.5234 63.415 72.8407 63.415Z" fill="white"/>
<path d="M80.7528 108.25H78.1155C77.4327 108.25 76.8792 108.804 76.8792 109.486C76.8792 110.169 77.4327 110.723 78.1155 110.723H80.7528C81.4355 110.723 81.9891 110.169 81.9891 109.486C81.9891 108.804 81.4355 108.25 80.7528 108.25Z" fill="white"/>
<path d="M80.7528 63.415H78.1155C77.4327 63.415 76.8792 63.9686 76.8792 64.6514C76.8792 65.3341 77.4327 65.8877 78.1155 65.8877H80.7528C81.4355 65.8877 81.9891 65.3341 81.9891 64.6514C81.9891 63.9686 81.4355 63.415 80.7528 63.415Z" fill="white"/>
<path d="M88.6649 108.25H86.0276C85.3448 108.25 84.7913 108.804 84.7913 109.486C84.7913 110.169 85.3448 110.723 86.0276 110.723H88.6649C89.3477 110.723 89.9012 110.169 89.9012 109.486C89.9012 108.804 89.3477 108.25 88.6649 108.25Z" fill="white"/>
<path d="M88.6649 63.415H86.0276C85.3448 63.415 84.7913 63.9686 84.7913 64.6514C84.7913 65.3341 85.3448 65.8877 86.0276 65.8877H88.6649C89.3477 65.8877 89.9012 65.3341 89.9012 64.6514C89.9012 63.9686 89.3477 63.415 88.6649 63.415Z" fill="white"/>
<path d="M96.5768 108.25H93.9395C93.2567 108.25 92.7031 108.804 92.7031 109.486C92.7031 110.169 93.2567 110.723 93.9395 110.723H96.5768C97.2595 110.723 97.8131 110.169 97.8131 109.486C97.8131 108.804 97.2595 108.25 96.5768 108.25Z" fill="white"/>
<path d="M96.5768 63.415H93.9395C93.2567 63.415 92.7031 63.9686 92.7031 64.6514C92.7031 65.3341 93.2567 65.8877 93.9395 65.8877H96.5768C97.2595 65.8877 97.8131 65.3341 97.8131 64.6514C97.8131 63.9686 97.2595 63.415 96.5768 63.415Z" fill="white"/>
<path d="M101.852 105.613C101.169 105.613 100.615 106.166 100.615 106.849V109.486C100.615 110.169 101.169 110.723 101.852 110.723C102.534 110.723 103.088 110.169 103.088 109.486V106.849C103.088 106.166 102.534 105.613 101.852 105.613Z" fill="white"/>
<path d="M101.852 63.415C101.169 63.415 100.615 63.9686 100.615 64.6514V67.2887C100.615 67.9716 101.169 68.525 101.852 68.525C102.534 68.525 103.088 67.9714 103.088 67.2887V64.6514C103.088 63.9685 102.534 63.415 101.852 63.415Z" fill="white"/>
<path d="M101.852 71.3271C101.169 71.3271 100.615 71.8807 100.615 72.5634V75.2007C100.615 75.8836 101.169 76.437 101.852 76.437C102.534 76.437 103.088 75.8835 103.088 75.2007V72.5634C103.088 71.8807 102.534 71.3271 101.852 71.3271Z" fill="white"/>
<path d="M101.852 97.7007C101.169 97.7007 100.615 98.2542 100.615 98.937V101.574C100.615 102.257 101.169 102.811 101.852 102.811C102.534 102.811 103.088 102.257 103.088 101.574V98.937C103.088 98.2542 102.534 97.7007 101.852 97.7007Z" fill="white"/>
<path d="M97.8956 84.5139C96.4867 84.5139 95.3406 85.66 95.3406 87.0689C95.3406 88.4778 96.4867 89.6239 97.8956 89.6239C99.3044 89.6239 100.451 88.4778 100.451 87.0689C100.45 85.66 99.3043 84.5139 97.8956 84.5139Z" fill="white"/>
<path d="M71.4395 86.1249V76.4866C75.4788 76.8113 78.1977 78.6904 78.1977 80.393C78.1977 81.0758 78.7512 81.6293 79.434 81.6293C80.1167 81.6293 80.6703 81.0758 80.6703 80.393C80.6703 77.0457 76.7053 74.3734 71.4396 74.0086V72.5634C71.4396 71.8807 70.886 71.3271 70.2033 71.3271C69.5205 71.3271 68.9669 71.8807 68.9669 72.5634V74.0086C63.7013 74.3735 59.7362 77.0458 59.7362 80.393C59.7362 84.8772 63.9999 86.6271 68.9669 88.0127V97.6511C64.9276 97.3265 62.2087 95.4474 62.2087 93.7446C62.2087 93.0619 61.6552 92.5083 60.9724 92.5083C60.2896 92.5083 59.7361 93.0619 59.7361 93.7446C59.7361 97.0919 63.7011 99.7642 68.9668 100.129V101.574C68.9668 102.257 69.5204 102.811 70.2031 102.811C70.8859 102.811 71.4395 102.257 71.4395 101.574V100.129C76.7051 99.7641 80.6702 97.0918 80.6702 93.7446C80.6702 89.2604 76.4064 87.5105 71.4395 86.1249ZM68.9669 85.4375C63.9528 83.9562 62.2087 82.6108 62.2087 80.393C62.2087 78.6904 64.9276 76.8113 68.9669 76.4866V85.4375ZM71.4395 97.6511V88.7001C76.4536 90.1815 78.1977 91.527 78.1977 93.7446C78.1977 95.4472 75.4788 97.3263 71.4395 97.6511Z" fill="white"/>
</g>
<defs>
<clipPath id="clip0_6_4">
<rect width="75" height="75" fill="white" transform="translate(36 41)"/>
</clipPath>
</defs>
</svg>
