<svg width="122" height="140" viewBox="0 0 122 140" fill="none" xmlns="http://www.w3.org/2000/svg">
<path d="M1.87822 35.866L61 1.73205L120.122 35.866V104.134L61 138.268L1.87822 104.134V35.866Z" stroke="#0F474C" stroke-width="3"/>
<g clip-path="url(#clip0_6_4)">
<path d="M90.8538 65.6114H90.7845V51.3718C90.7845 49.6062 89.3248 48.1696 87.5307 48.1696H86.9486L85.6231 41.3089C85.516 40.7547 85.1961 40.2747 84.7221 39.9573C84.2482 39.6399 83.677 39.5232 83.1139 39.6285L78.1758 40.5525L76.337 35.4141C76.1466 34.882 75.7569 34.4547 75.2399 34.2109C74.723 33.9671 74.1406 33.936 73.5997 34.1236L33.0564 48.1762C31.3539 48.277 30 49.6714 30 51.3718V92.7961C30 94.5617 31.4597 95.9983 33.2539 95.9983H87.5308C89.325 95.9983 90.7847 94.5617 90.7847 92.7961V78.5564H90.8539C92.0374 78.5564 93.0001 77.609 93.0001 76.4443V67.7234C93 66.5589 92.0373 65.6114 90.8538 65.6114ZM74.2895 36.0514C74.2963 36.0491 74.3163 36.042 74.3424 36.0543C74.3682 36.0664 74.3754 36.0866 74.3777 36.0932L76.1119 40.9389L74.0439 41.3258C73.4805 41.4312 73.1105 41.9662 73.2176 42.5207C73.3248 43.0752 73.8681 43.4395 74.4319 43.3339L83.5018 41.6367C83.5087 41.6355 83.5298 41.6314 83.5537 41.6474C83.5776 41.6634 83.5815 41.6842 83.5827 41.691L84.8344 48.1699H48.5854L70.0023 44.1626C70.5657 44.0573 70.9357 43.5223 70.8286 42.9677C70.7214 42.4132 70.178 42.0488 69.6143 42.1545L41.5104 47.413L74.2895 36.0514ZM88.7078 92.7959C88.7078 93.4346 88.1798 93.9542 87.5308 93.9542H33.2539C32.6049 93.9542 32.0769 93.4346 32.0769 92.7959V91.6377H34.3615C34.935 91.6377 35.4 91.1801 35.4 90.6157C35.4 90.0512 34.935 89.5936 34.3615 89.5936H32.0769V54.574H34.3615C34.935 54.574 35.4 54.1164 35.4 53.552C35.4 52.9876 34.935 52.53 34.3615 52.53H32.0769V51.3717C32.0769 50.733 32.6049 50.2134 33.2539 50.2134H87.5308C88.1798 50.2134 88.7078 50.733 88.7078 51.3717V65.6112H81.9923C78.3659 65.6112 75.4154 68.5148 75.4154 72.0838C75.4154 75.6527 78.3658 78.5564 81.9923 78.5564H88.7078V92.7959ZM90.9231 76.4443C90.9231 76.4817 90.8921 76.5125 90.8538 76.5125H81.9922C79.511 76.5125 77.4923 74.5258 77.4923 72.0839C77.4923 69.642 79.511 67.6554 81.9922 67.6554H90.8538C90.8921 67.6554 90.9231 67.6861 90.9231 67.7236V76.4443Z" fill="#0F474C"/>
<path d="M41.0078 89.5934H38.7924C38.2189 89.5934 37.7539 90.051 37.7539 90.6154C37.7539 91.1798 38.2189 91.6374 38.7924 91.6374H41.0078C41.5813 91.6374 42.0463 91.1798 42.0463 90.6154C42.0463 90.051 41.5813 89.5934 41.0078 89.5934Z" fill="#0F474C"/>
<path d="M41.0078 52.5298H38.7924C38.2189 52.5298 37.7539 52.9874 37.7539 53.5518C37.7539 54.1162 38.2189 54.5738 38.7924 54.5738H41.0078C41.5813 54.5738 42.0463 54.1162 42.0463 53.5518C42.0463 52.9874 41.5813 52.5298 41.0078 52.5298Z" fill="#0F474C"/>
<path d="M47.654 89.5934H45.4387C44.8651 89.5934 44.4001 90.051 44.4001 90.6154C44.4001 91.1798 44.8651 91.6374 45.4387 91.6374H47.654C48.2275 91.6374 48.6925 91.1798 48.6925 90.6154C48.6925 90.051 48.2274 89.5934 47.654 89.5934Z" fill="#0F474C"/>
<path d="M47.654 52.5298H45.4387C44.8651 52.5298 44.4001 52.9874 44.4001 53.5518C44.4001 54.1162 44.8651 54.5738 45.4387 54.5738H47.654C48.2275 54.5738 48.6925 54.1162 48.6925 53.5518C48.6925 52.9874 48.2274 52.5298 47.654 52.5298Z" fill="#0F474C"/>
<path d="M54.3 89.5934H52.0847C51.5111 89.5934 51.0461 90.051 51.0461 90.6154C51.0461 91.1798 51.5111 91.6374 52.0847 91.6374H54.3C54.8735 91.6374 55.3385 91.1798 55.3385 90.6154C55.3385 90.051 54.8735 89.5934 54.3 89.5934Z" fill="#0F474C"/>
<path d="M54.3 52.5298H52.0847C51.5111 52.5298 51.0461 52.9874 51.0461 53.5518C51.0461 54.1162 51.5111 54.5738 52.0847 54.5738H54.3C54.8735 54.5738 55.3385 54.1162 55.3385 53.5518C55.3385 52.9874 54.8735 52.5298 54.3 52.5298Z" fill="#0F474C"/>
<path d="M60.9462 89.5934H58.7309C58.1574 89.5934 57.6924 90.051 57.6924 90.6154C57.6924 91.1798 58.1574 91.6374 58.7309 91.6374H60.9462C61.5198 91.6374 61.9848 91.1798 61.9848 90.6154C61.9848 90.051 61.5198 89.5934 60.9462 89.5934Z" fill="#0F474C"/>
<path d="M60.9462 52.5298H58.7309C58.1574 52.5298 57.6924 52.9874 57.6924 53.5518C57.6924 54.1162 58.1574 54.5738 58.7309 54.5738H60.9462C61.5198 54.5738 61.9848 54.1162 61.9848 53.5518C61.9848 52.9874 61.5198 52.5298 60.9462 52.5298Z" fill="#0F474C"/>
<path d="M67.5922 89.5934H65.3769C64.8034 89.5934 64.3384 90.051 64.3384 90.6154C64.3384 91.1798 64.8034 91.6374 65.3769 91.6374H67.5922C68.1658 91.6374 68.6307 91.1798 68.6307 90.6154C68.6307 90.051 68.1658 89.5934 67.5922 89.5934Z" fill="#0F474C"/>
<path d="M67.5922 52.5298H65.3769C64.8034 52.5298 64.3384 52.9874 64.3384 53.5518C64.3384 54.1162 64.8034 54.5738 65.3769 54.5738H67.5922C68.1658 54.5738 68.6307 54.1162 68.6307 53.5518C68.6307 52.9874 68.1658 52.5298 67.5922 52.5298Z" fill="#0F474C"/>
<path d="M74.2385 89.5934H72.0231C71.4496 89.5934 70.9846 90.051 70.9846 90.6154C70.9846 91.1798 71.4496 91.6374 72.0231 91.6374H74.2385C74.812 91.6374 75.277 91.1798 75.277 90.6154C75.277 90.051 74.812 89.5934 74.2385 89.5934Z" fill="#0F474C"/>
<path d="M74.2385 52.5298H72.0231C71.4496 52.5298 70.9846 52.9874 70.9846 53.5518C70.9846 54.1162 71.4496 54.5738 72.0231 54.5738H74.2385C74.812 54.5738 75.277 54.1162 75.277 53.5518C75.277 52.9874 74.812 52.5298 74.2385 52.5298Z" fill="#0F474C"/>
<path d="M80.8845 89.5934H78.6691C78.0956 89.5934 77.6306 90.051 77.6306 90.6154C77.6306 91.1798 78.0956 91.6374 78.6691 91.6374H80.8845C81.458 91.6374 81.923 91.1798 81.923 90.6154C81.923 90.051 81.458 89.5934 80.8845 89.5934Z" fill="#0F474C"/>
<path d="M80.8845 52.5298H78.6691C78.0956 52.5298 77.6306 52.9874 77.6306 53.5518C77.6306 54.1162 78.0956 54.5738 78.6691 54.5738H80.8845C81.458 54.5738 81.923 54.1162 81.923 53.5518C81.923 52.9874 81.458 52.5298 80.8845 52.5298Z" fill="#0F474C"/>
<path d="M85.3154 87.4132C84.7418 87.4132 84.2769 87.8708 84.2769 88.4352V90.6154C84.2769 91.18 84.7418 91.6374 85.3154 91.6374C85.8889 91.6374 86.3539 91.1798 86.3539 90.6154V88.4352C86.3539 87.8708 85.8889 87.4132 85.3154 87.4132Z" fill="#0F474C"/>
<path d="M85.3154 52.5298C84.7418 52.5298 84.2769 52.9874 84.2769 53.5518V55.732C84.2769 56.2965 84.7418 56.754 85.3154 56.754C85.8889 56.754 86.3539 56.2964 86.3539 55.732V53.5518C86.3539 52.9873 85.8889 52.5298 85.3154 52.5298Z" fill="#0F474C"/>
<path d="M85.3154 59.0704C84.7418 59.0704 84.2769 59.528 84.2769 60.0924V62.2726C84.2769 62.8371 84.7418 63.2946 85.3154 63.2946C85.8889 63.2946 86.3539 62.837 86.3539 62.2726V60.0924C86.3539 59.528 85.8889 59.0704 85.3154 59.0704Z" fill="#0F474C"/>
<path d="M85.3154 80.8726C84.7418 80.8726 84.2769 81.3302 84.2769 81.8946V84.0748C84.2769 84.6393 84.7418 85.0968 85.3154 85.0968C85.8889 85.0968 86.3539 84.6392 86.3539 84.0748V81.8946C86.3539 81.3302 85.8889 80.8726 85.3154 80.8726Z" fill="#0F474C"/>
<path d="M81.9924 69.9715C80.8089 69.9715 79.8462 70.9189 79.8462 72.0836C79.8462 73.2483 80.8089 74.1957 81.9924 74.1957C83.1758 74.1957 84.1386 73.2483 84.1386 72.0836C84.1384 70.9189 83.1757 69.9715 81.9924 69.9715Z" fill="#0F474C"/>
<path d="M59.7693 71.3033V63.3355C63.1623 63.604 65.4462 65.1574 65.4462 66.5649C65.4462 67.1293 65.9112 67.5869 66.4847 67.5869C67.0582 67.5869 67.5232 67.1293 67.5232 66.5649C67.5232 63.7978 64.1926 61.5886 59.7694 61.2871V60.0924C59.7694 59.528 59.3044 59.0704 58.7309 59.0704C58.1574 59.0704 57.6924 59.528 57.6924 60.0924V61.2871C53.2692 61.5888 49.9386 63.7979 49.9386 66.5649C49.9386 70.2718 53.5201 71.7184 57.6924 72.8638V80.8315C54.2994 80.5632 52.0155 79.0098 52.0155 77.6022C52.0155 77.0378 51.5505 76.5802 50.977 76.5802C50.4035 76.5802 49.9385 77.0378 49.9385 77.6022C49.9385 80.3693 53.2691 82.5784 57.6923 82.8799V84.0747C57.6923 84.6391 58.1573 85.0967 58.7308 85.0967C59.3043 85.0967 59.7693 84.6391 59.7693 84.0747V82.8799C64.1925 82.5783 67.5231 80.3692 67.5231 77.6022C67.5231 73.8953 63.9416 72.4487 59.7693 71.3033ZM57.6924 70.735C53.4805 69.5105 52.0155 68.3982 52.0155 66.5649C52.0155 65.1574 54.2994 63.604 57.6924 63.3355V70.735ZM59.7693 80.8315V73.4321C63.9812 74.6567 65.4462 75.769 65.4462 77.6022C65.4462 79.0097 63.1623 80.5631 59.7693 80.8315Z" fill="#0F474C"/>
</g>
<defs>
<clipPath id="clip0_6_4">
<rect width="63" height="62" fill="white" transform="translate(30 34)"/>
</clipPath>
</defs>
</svg>
